<svg aria-hidden="true" style="position: absolute; width: 0; height: 0; overflow: hidden;" version="1.1" xmlns="http://www.w3.org/2000/svg" xmlns:xlink="http://www.w3.org/1999/xlink">
<defs>
<symbol id="icon-bytesize_twitter-1" viewBox="0 0 32 32">
<path  opacity="0.6" d="M30 8l-3 0.5 2-2.5-3.5 1c-4.5-5-11.5 0.5-9.5 5-8 0-12-6-12-6s-3 4.5 2 8l-3-1c0 3 2 5 5.5 6h-3.5c2 4 5.5 4 5.5 4s-3 2.5-8.5 2.5c16.5 8 26.5-7 25-15l3-2.5z"></path>
</symbol>
<symbol id="icon-akar-icons_instagram-fill-2" viewBox="0 0 32 32">
<path  opacity="0.6" d="M9.953 1.421c1.564-0.072 2.063-0.088 6.047-0.088s4.483 0.017 6.045 0.088c1.563 0.071 2.629 0.32 3.563 0.681 0.977 0.369 1.864 0.947 2.597 1.693 0.747 0.732 1.323 1.617 1.691 2.596 0.363 0.933 0.611 2 0.683 3.56 0.072 1.567 0.088 2.065 0.088 6.048 0 3.984-0.017 4.483-0.088 6.047-0.071 1.56-0.32 2.627-0.683 3.56-0.389 1.017-0.964 1.884-1.69 2.598l-0.001 0.001c-0.733 0.747-1.62 1.323-2.597 1.691-0.933 0.363-2 0.611-3.56 0.683-1.565 0.072-2.064 0.088-6.048 0.088s-4.483-0.017-6.047-0.088c-1.56-0.071-2.627-0.32-3.56-0.683-1.017-0.389-1.884-0.964-2.598-1.69l-0.001-0.001c-0.727-0.714-1.303-1.581-1.675-2.548l-0.017-0.049c-0.361-0.933-0.609-2-0.681-3.56-0.072-1.567-0.088-2.065-0.088-6.048 0-3.984 0.017-4.483 0.088-6.045s0.32-2.629 0.681-3.563c0.39-1.016 0.966-1.883 1.692-2.596l0.001-0.001c0.714-0.727 1.58-1.303 2.547-1.675l0.049-0.017c0.933-0.361 2-0.609 3.56-0.681h0.001zM21.927 4.061c-1.547-0.071-2.011-0.085-5.927-0.085s-4.38 0.015-5.927 0.085c-1.431 0.065-2.207 0.304-2.724 0.505-0.684 0.267-1.173 0.583-1.687 1.096-0.475 0.462-0.848 1.025-1.086 1.655l-0.010 0.031c-0.201 0.517-0.44 1.293-0.505 2.724-0.071 1.547-0.085 2.011-0.085 5.927s0.015 4.38 0.085 5.927c0.065 1.431 0.304 2.207 0.505 2.724 0.235 0.636 0.609 1.213 1.096 1.687 0.473 0.487 1.051 0.861 1.687 1.096 0.517 0.201 1.293 0.44 2.724 0.505 1.547 0.071 2.009 0.085 5.927 0.085s4.38-0.015 5.927-0.085c1.431-0.065 2.207-0.304 2.724-0.505 0.684-0.267 1.173-0.583 1.687-1.096 0.487-0.473 0.861-1.051 1.096-1.687 0.201-0.517 0.44-1.293 0.505-2.724 0.071-1.547 0.085-2.011 0.085-5.927s-0.015-4.38-0.085-5.927c-0.065-1.431-0.304-2.207-0.505-2.724-0.267-0.684-0.583-1.173-1.096-1.687-0.462-0.474-1.025-0.848-1.655-1.086l-0.031-0.010c-0.517-0.201-1.293-0.44-2.724-0.505zM14.127 20.521c0.554 0.236 1.198 0.373 1.874 0.373 2.703 0 4.893-2.191 4.893-4.893 0-2.112-1.338-3.911-3.212-4.597l-0.034-0.011c-0.49-0.181-1.057-0.286-1.648-0.286-2.703 0-4.893 2.191-4.893 4.893 0 2.026 1.232 3.765 2.988 4.508l0.032 0.012zM10.669 10.669c1.364-1.364 3.249-2.208 5.331-2.208 4.163 0 7.539 3.375 7.539 7.539 0 2.082-0.844 3.966-2.208 5.331v0c-1.364 1.364-3.249 2.208-5.331 2.208-4.163 0-7.539-3.375-7.539-7.539 0-2.082 0.844-3.966 2.208-5.331v0zM25.211 9.584c0.345-0.326 0.559-0.786 0.559-1.296 0-0.984-0.798-1.782-1.782-1.782-0.474 0-0.904 0.185-1.224 0.487l0.001-0.001c-0.345 0.326-0.559 0.786-0.559 1.296 0 0.984 0.798 1.782 1.782 1.782 0.474 0 0.904-0.185 1.224-0.487l-0.001 0.001z"></path>
</symbol>
<symbol id="icon-grommet-icons_facebook-option-1" viewBox="0 0 32 32">
<path  opacity="0.6" d="M13.26 29.333v-11.779h-3.927v-4.908h3.927v-3.927c0-4.057 2.568-6.053 6.187-6.053 1.733 0 3.224 0.129 3.659 0.187v4.24h-2.511c-1.968 0-2.427 0.937-2.427 2.309v3.244h4.907l-0.981 4.907h-3.925l0.079 11.78z"></path>
</symbol>
<symbol id="icon-regin-1-1" viewBox="0 0 32 32">
<path d="M12.287 16.437c0.8-0.126 1.326-0.844 1.326-1.659 0-0.667-0.363-1.111-0.859-1.281-0.296-0.104-0.615-0.111-1.193-0.111h-1.563l-1.207 5.23h0.978l0.474-2.059h1.089l0.622 2.059h1.022l-0.689-2.178zM10.791 14.2h0.733c0.326 0 0.519 0 0.667 0.052 0.222 0.081 0.407 0.296 0.407 0.615 0 0.193-0.074 0.681-0.578 0.852-0.178 0.059-0.385 0.067-0.704 0.067h-0.896l0.37-1.585zM17.649 17.771h-2.978l0.333-1.459h2.467l0.193-0.837h-2.467l0.289-1.237h2.592l0.193-0.852h-3.556l-1.207 5.23h3.948l0.193-0.844zM22.908 15.859h-2.297l-0.193 0.837h1.385c-0.089 0.46-0.296 0.726-0.437 0.859-0.163 0.156-0.474 0.341-0.978 0.341-0.771 0-1.274-0.541-1.274-1.378 0-0.971 0.667-2.415 1.933-2.415 0.919 0 1.037 0.681 1.082 0.941l0.97-0.222c-0.103-0.452-0.318-0.881-0.696-1.155-0.356-0.259-0.889-0.393-1.363-0.393-1.919 0-2.963 1.822-2.963 3.311 0 1.297 0.807 2.141 2.082 2.141 0.711 0 1.104-0.252 1.37-0.467l-0.118 0.356h0.859l0.637-2.756zM25.316 13.385h-0.985l-1.207 5.23h0.985l1.207-5.23zM30.588 13.385h-0.941l-0.822 3.86-1.6-3.86h-0.881l-1.208 5.23h0.956l0.815-3.837 1.6 3.837h0.874l1.207-5.23zM3.517 13.811c0.653-0.024 1.12 0.413 1.571 0.835 0.404 0.378 0.786 0.735 1.273 0.735 0.758 0 1.863-1.046 1.909-1.091l-0.078-0.090c-0.010 0.008-0.976 0.763-1.678 0.763-0.5 0-0.913-0.363-1.35-0.747-0.543-0.476-1.103-0.969-1.871-0.772-0.495 0.127-1.138 0.597-1.165 0.617l0.058 0.103c0.008-0.003 0.803-0.335 1.331-0.354zM6.174 16.585c-0.507 0-0.939-0.369-1.396-0.759-0.546-0.467-1.111-0.949-1.826-0.759-0.456 0.121-1.135 0.595-1.164 0.616l0.058 0.103c0.008-0.003 0.818-0.351 1.328-0.353 0.558-0.003 1.024 0.408 1.475 0.806 0.446 0.393 0.867 0.764 1.371 0.764 0.758 0 1.852-1.065 1.899-1.11l-0.079-0.089c-0.010 0.008-0.964 0.781-1.666 0.781zM5.798 18.17c-0.499 0-0.913-0.363-1.35-0.747-0.543-0.476-1.103-0.969-1.871-0.772-0.495 0.128-1.138 0.597-1.165 0.617l0.058 0.103c0.008-0.003 0.803-0.335 1.331-0.354 0.653-0.024 1.12 0.413 1.571 0.835 0.404 0.378 0.786 0.735 1.273 0.735 0.759 0 1.842-1.084 1.888-1.131l-0.081-0.087c-0.009 0.008-0.953 0.8-1.653 0.8z"></path>
</symbol>
<symbol id="icon-tulip-1" viewBox="0 0 32 32">
<path d="M18.868 21.334h2.411c0.313-1.368-0.349-2.362 0.482-3.231-1.434-0.066-2.893 0.802-2.893 3.231zM18.503 21.334h-2.411c-0.314-1.368 0.349-2.362-0.482-3.231 1.435-0.066 2.893 0.802 2.893 3.231zM6.614 8.661v1.605h-2.097v11.117h-1.856v-11.117h-2.19v-1.605h6.144z"></path>
<path d="M7.7 12.822v4.663c0 0.981-0.154 2.612 1.198 2.612 1.299 0 1.199-1.631 1.199-2.612v-4.663h2.097v5.065c0 2.507-1.109 3.821-3.296 3.821s-3.296-1.315-3.296-3.821v-5.066h2.097zM24.413 13.393c0.441-0.686 1.158-1.101 1.875-1.101 1.916 0 3.089 2.346 3.089 4.673 0 2.418-1.131 4.764-3.13 4.764-0.689 0-1.42-0.397-1.806-1.119h-0.028v3.9h-1.93v-11.93h1.93v0.812zM27.418 17.001c0-1.191-0.606-2.472-1.599-2.472s-1.6 1.281-1.6 2.472 0.607 2.49 1.6 2.49c0.993 0 1.599-1.299 1.599-2.49zM14.907 21.383v-13.741h-1.832v13.741h1.832zM30.716 8.295c0.346 0.348 0.52 0.769 0.52 1.263 0 0.497-0.173 0.921-0.52 1.271s-0.768 0.525-1.263 0.525c-0.495 0-0.916-0.175-1.263-0.525-0.345-0.35-0.517-0.774-0.517-1.271 0-0.493 0.173-0.914 0.52-1.263 0.348-0.35 0.768-0.526 1.26-0.526 0.493 0 0.914 0.175 1.263 0.526zM30.922 8.094c-0.405-0.403-0.895-0.605-1.469-0.605-0.571 0-1.057 0.202-1.46 0.605-0.405 0.405-0.607 0.893-0.607 1.463 0 0.576 0.2 1.067 0.602 1.472 0.403 0.407 0.891 0.611 1.466 0.611s1.064-0.204 1.469-0.611c0.405-0.406 0.607-0.897 0.607-1.472 0-0.572-0.203-1.060-0.607-1.463zM29.761 9.461c-0.084 0.034-0.212 0.051-0.381 0.051h-0.361v-0.825h0.342c0.222 0 0.384 0.028 0.484 0.085s0.151 0.168 0.151 0.333c0 0.175-0.078 0.294-0.235 0.356zM28.617 10.69h0.401v-0.898h0.316c0.213 0 0.362 0.024 0.446 0.073 0.143 0.085 0.215 0.259 0.215 0.523v0.181l0.008 0.074c0.002 0.009 0.004 0.018 0.006 0.025s0.003 0.015 0.005 0.023h0.375l-0.014-0.028c-0.009-0.019-0.016-0.059-0.020-0.119-0.003-0.050-0.005-0.109-0.005-0.169v-0.167c0-0.115-0.041-0.232-0.124-0.353s-0.214-0.195-0.392-0.223c0.141-0.023 0.251-0.059 0.33-0.11 0.149-0.096 0.223-0.246 0.223-0.449 0-0.286-0.118-0.479-0.353-0.576-0.132-0.055-0.339-0.082-0.621-0.082h-0.796v2.277zM18.142 13.757c0.569 1.186-0.569 3.463 1.376 3.7-0.285 0.427-1.233 0.427-1.803 0.237-0.759-0.19-1.423-0.854-1.708-1.565-0.522-1.281 0.249-3.279-0.569-4.222 1.186 0 2.325 0.759 2.704 1.85z"></path>
<path d="M21.653 11.907c-0.949 1.239 0.059 3.018-0.534 4.441-0.207 0.475-0.51 0.729-0.889 0.825-0.522 0.142-0.979-0.024-1.281-0.427-0.409-0.605-0.35-2.769 0.332-3.748 0.563-0.801 1.423-1.139 2.372-1.091zM18.54 13.747c0.139-0.87 0.246-1.327 0.872-1.709 0 0-0.141-0.731-0.872-1.113-0.765 0.417-0.942 1.113-0.942 1.113 0.626 0.383 0.803 0.839 0.942 1.709z"></path>
</symbol>
<symbol id="icon-Frame-1-1" viewBox="0 0 32 32">
<path d="M6.017 11.704h1.066v1.247h1.066v0.748h-1.066v1.871c0 0.436 0 0.686 0.376 0.686h0.753v0.748c-0.314 0.063-0.502 0.063-0.815 0.063-1.317 0-1.38-0.437-1.38-1.185v-4.178zM9.154 12.951h1.066v0.748h0.063c0.251-0.437 0.69-0.873 1.505-0.873 0.188 0 0.314 0 0.439 0.062v0.998c-0.314-0.063-0.502-0.063-0.69-0.063-0.565 0-1.317 0.249-1.317 1.185v1.996h-1.066v-4.054h-0zM15.991 15.383c0 0.873-0.941 1.060-1.505 1.060-0.376 0-0.878-0.062-0.878-0.623 0-0.312 0.188-0.499 1.004-0.624 0.753-0.062 1.067-0.125 1.38-0.249v0.437zM17.058 14.136c0-0.499-0.063-1.372-2.196-1.372-1.192 0-2.007 0.312-2.133 1.434h1.004c0.063-0.499 0.439-0.686 1.129-0.686 0.627 0 1.192 0.125 1.192 0.561 0 0.312-0.188 0.374-1.693 0.499-0.69 0.062-1.882 0.187-1.882 1.309 0 0.811 0.627 1.247 1.694 1.247 1.192 0 1.694-0.374 1.945-0.561 0 0.187 0.063 0.561 0.753 0.561 0.376 0 0.565-0.062 0.753-0.125v-0.748c-0.063 0-0.251 0.062-0.314 0.062s-0.251-0.062-0.251-0.249v-1.933zM17.622 12.951h1.192l1.192 2.993 1.255-2.993h1.255l-1.882 4.054h-1.192l-1.819-4.054zM23.832 14.572c0.188-0.873 0.878-1.060 1.38-1.060s1.192 0.249 1.38 1.060h-2.76zM27.659 15.196v-0.125c0-1.185-0.69-2.307-2.509-2.307-1.443 0-2.446 0.873-2.446 2.245 0 1.060 0.69 2.12 2.509 2.12 1.568 0 2.133-0.873 2.384-1.309h-1.192c-0.188 0.312-0.502 0.561-1.192 0.561-1.067 0-1.38-0.686-1.38-1.185h3.827zM28.537 11.704h1.067v5.301h-1.067v-5.301zM3.571 14.448c0 0.312-0.251 0.624-0.627 0.624s-0.627-0.312-0.627-0.624c0-0.374 0.251-0.686 0.627-0.686s0.627 0.312 0.627 0.686zM3.571 12.203c0 0.374-0.251 0.624-0.627 0.624s-0.627-0.249-0.627-0.624c0-0.312 0.251-0.624 0.627-0.624s0.627 0.312 0.627 0.624zM5.453 13.325c0 0.312-0.251 0.624-0.627 0.624s-0.627-0.312-0.627-0.624c0-0.374 0.251-0.624 0.627-0.624s0.627 0.249 0.627 0.624zM15.928 19.499c-0.188 0.561-0.565 0.811-1.067 0.811-0.815 0-1.129-0.561-1.129-1.060 0-0.624 0.376-1.123 1.129-1.123 0.502 0 0.941 0.25 1.004 0.749h-0.376c-0.063-0.249-0.251-0.436-0.627-0.436-0.502 0-0.69 0.312-0.69 0.748s0.188 0.811 0.69 0.811c0.376 0 0.564-0.187 0.627-0.499h0.439zM16.305 17.566h0.376v0.935c0.188-0.312 0.502-0.374 0.816-0.374 0.501 0 0.878 0.187 0.878 0.686v1.434h-0.377v-1.31c0-0.312-0.188-0.499-0.627-0.499-0.376 0-0.69 0.187-0.69 0.623v1.185h-0.376v-2.682zM20.445 19.437c0 0.312-0.376 0.561-0.815 0.561-0.251 0-0.439-0.125-0.439-0.312 0-0.25 0.125-0.312 0.439-0.374h0.439c0.251-0.062 0.314-0.062 0.376-0.125v0.249zM19.253 18.813c0-0.312 0.251-0.374 0.627-0.374 0.314 0 0.565 0.062 0.565 0.312 0 0.187-0.125 0.249-0.314 0.249l-0.502 0.063c-0.627 0.062-0.878 0.249-0.878 0.624 0 0.249 0.188 0.623 0.878 0.623 0.314 0 0.69-0.124 0.878-0.374 0 0.249 0.125 0.312 0.314 0.312h0.314v-0.312c-0.063 0-0.125 0.062-0.125 0.062-0.125 0-0.188-0.062-0.188-0.187v-1.122c0-0.437-0.502-0.561-0.941-0.561-0.627 0-0.941 0.187-1.004 0.686h0.377zM21.448 18.189h0.376v0.312c0.188-0.312 0.502-0.374 0.815-0.374 0.502 0 0.878 0.187 0.878 0.686v1.434h-0.439v-1.31c0-0.312-0.188-0.499-0.565-0.499s-0.69 0.187-0.69 0.623v1.185h-0.376v-2.058zM24.020 18.189h0.376v0.312c0.188-0.312 0.502-0.374 0.816-0.374 0.502 0 0.815 0.187 0.815 0.686v1.434h-0.376v-1.31c0-0.312-0.188-0.499-0.565-0.499s-0.69 0.187-0.69 0.623v1.185h-0.376v-2.058zM26.906 19c0.063-0.312 0.376-0.561 0.753-0.561s0.627 0.187 0.69 0.561h-1.443zM28.788 19.312v-0.062c0-0.811-0.565-1.123-1.129-1.123-0.816 0-1.192 0.499-1.192 1.060 0 0.623 0.376 1.122 1.192 1.122 0.377 0 0.878-0.187 1.066-0.686h-0.439c-0.126 0.249-0.439 0.374-0.627 0.374-0.376 0-0.753-0.249-0.753-0.686l1.882-0zM29.227 17.566h0.376v2.682h-0.376v-2.682z"></path>
</symbol>
<symbol id="icon-sky-travel-2-1-1" viewBox="0 0 32 32">
<path d="M22.699 16.236c0-0.421-0.115-0.722-0.343-0.907-0.214-0.193-0.572-0.293-1.057-0.3-0.004 0-0.009 0-0.013 0-0.369 0-0.73 0.031-1.082 0.091l0.038-0.005c-0.060 0.008-0.115 0.036-0.157 0.079-0.035 0.053-0.056 0.117-0.057 0.186v0.279c0 0.050 0.021 0.072 0.057 0.072 0.317-0.055 0.683-0.087 1.056-0.087 0.043 0 0.087 0 0.13 0.001l-0.006-0c0.186 0 0.379 0.043 0.564 0.128 0.121 0.050 0.179 0.157 0.179 0.322l-0.014 0.093c-0.007 0.029-0.029 0.051-0.072 0.057l-1.043 0.207c-0.343 0.064-0.621 0.164-0.821 0.293-0.186 0.15-0.286 0.357-0.286 0.636-0.007 0.107 0 0.221 0.043 0.343 0.050 0.136 0.114 0.25 0.193 0.335 0.086 0.122 0.25 0.2 0.472 0.257 0.165 0.029 0.422 0.043 0.772 0.050 0.414 0.014 0.736 0 0.943-0.036 0.236-0.036 0.364-0.079 0.414-0.136 0.050-0.064 0.086-0.121 0.093-0.186v-1.772zM20.477 17.379c-0.007-0.072 0.021-0.15 0.093-0.243 0.079-0.086 0.164-0.136 0.258-0.15l1.172-0.193v0.929l-0.121 0.029c-0.193 0.043-0.393 0.057-0.607 0.050-0.2 0-0.386-0.028-0.557-0.093-0.158-0.058-0.236-0.165-0.236-0.329zM16.897 17.729l-0.057-0.050-0.529 0.007-0.272-0.029-0.15-0.072-0.072-0.143-0.014-0.2v-1.558l0.064-0.093h0.843c0.043 0 0.072-0.021 0.072-0.064v-0.429l-0.072-0.072h-0.907v-0.851c0-0.064-0.029-0.093-0.093-0.093h-0.307c-0.207 0-0.315 0.107-0.315 0.328v2.815c0 0.364 0.086 0.629 0.257 0.8 0.193 0.172 0.486 0.265 0.879 0.265h0.265l0.221-0.036 0.157-0.072 0.043-0.143-0.014-0.314zM27.916 15.057c-0.229 0-0.451 0.029-0.672 0.093-0.207 0.050-0.379 0.136-0.493 0.264-0.15 0.157-0.257 0.329-0.322 0.493-0.072 0.236-0.107 0.507-0.114 0.815 0 0.208 0.028 0.436 0.093 0.679 0.036 0.193 0.121 0.372 0.236 0.543 0.143 0.193 0.307 0.307 0.5 0.357 0.24 0.053 0.518 0.086 0.802 0.093l0.005 0c0.322 0 0.593-0.007 0.815-0.021 0.243-0.029 0.372-0.057 0.386-0.093 0.021-0.014 0.036-0.079 0.036-0.193l-0.007-0.286c-0.008-0.057-0.029-0.085-0.072-0.085-0.312 0.045-0.671 0.071-1.037 0.071-0.005 0-0.009 0-0.014 0h0.001c-0.15 0.014-0.279 0-0.4-0.021-0.157-0.028-0.257-0.057-0.3-0.093-0.072-0.057-0.129-0.107-0.164-0.164-0.071-0.121-0.107-0.215-0.107-0.286l1.679-0.379c0.164-0.036 0.286-0.086 0.364-0.157 0.1-0.072 0.172-0.164 0.2-0.272 0.043-0.1 0.065-0.229 0.065-0.386-0.007-0.114-0.029-0.236-0.072-0.343-0.050-0.114-0.121-0.221-0.229-0.307-0.107-0.093-0.257-0.164-0.45-0.215-0.25-0.064-0.493-0.107-0.729-0.107zM27.23 15.85c0.064-0.072 0.15-0.128 0.272-0.157 0.193-0.050 0.35-0.071 0.471-0.064 0.236-0.014 0.414 0.021 0.536 0.114 0.107 0.072 0.164 0.179 0.172 0.293 0.007 0.050 0 0.114-0.021 0.179-0.012 0.063-0.052 0.114-0.106 0.142l-0.001 0.001c-0.057 0.036-0.121 0.057-0.172 0.057l-1.329 0.25v-0.079c-0.007-0.15 0-0.3 0.029-0.443 0.014-0.078 0.064-0.178 0.15-0.293zM23.564 15.043l-0.486 0.014-0.057 0.014-0.029 0.043c0 0.007 0.007 0.021 0.007 0.036l1.122 3.029 0.036 0.093 0.086 0.021h0.686l0.086-0.021 0.057-0.072 1.165-3.087c-0.014-0.014-0.043-0.029-0.086-0.043-0.136 0-0.329 0-0.6 0.007l-0.071 0.107-0.836 2.436h-0.036l-0.807-2.436-0.086-0.107-0.15-0.036zM18.64 15.728c0.164-0.044 0.307-0.072 0.414-0.072 0.19 0.001 0.325 0.004 0.508 0.029 0.043 0.006 0.072-0.029 0.064-0.114-0.003-0.035-0.005-0.076-0.005-0.118s0.002-0.083 0.006-0.123l-0 0.005c0.007-0.071-0.025-0.125-0.064-0.164-0.041-0.042-0.091-0.076-0.147-0.099l-0.003-0.001c-0.015-0.006-0.021-0.006-0.028-0.007l-0.043-0.007-0.372-0.007c-0.157-0.003-0.357 0.046-0.614 0.1-0.371 0.077-0.725 0.392-0.851 0.743-0.088 0.245-0.1 0.5-0.1 0.75v1.572c0 0.057 0.021 0.086 0.072 0.086h0.536c0.057 0 0.085-0.029 0.085-0.086v-1.572c0-0.15 0.013-0.294 0.043-0.429 0.060-0.27 0.243-0.417 0.5-0.486zM30.195 13.606c-0.2 0-0.3 0.107-0.3 0.321v4.28c0 0.057 0.021 0.086 0.072 0.086h0.536c0.057 0 0.086-0.029 0.086-0.086v-4.53l-0.086-0.072h-0.307zM2.891 13.978c-0.472 0-0.843 0.128-1.115 0.379-0.25 0.243-0.371 0.55-0.364 0.9 0 0.314 0.1 0.564 0.286 0.757 0.179 0.186 0.472 0.328 0.9 0.436l1.286 0.293c0.15 0.022 0.257 0.065 0.3 0.129 0.057 0.036 0.093 0.107 0.1 0.221 0.014 0.164-0.121 0.257-0.4 0.265h-2.001c-0.143 0-0.243 0.036-0.307 0.1s-0.093 0.164-0.093 0.3v0.464l0.007 0.043 0.071 0.021h2.251c0.55 0 0.965-0.129 1.236-0.372 0.25-0.214 0.379-0.493 0.393-0.858-0.014-0.35-0.107-0.621-0.286-0.8-0.2-0.222-0.5-0.372-0.879-0.443l-1.336-0.3c-0.093-0.007-0.186-0.050-0.293-0.143l-0.050-0.050c-0.050-0.021-0.064-0.071-0.057-0.157 0-0.093 0.036-0.157 0.107-0.193 0.043-0.043 0.129-0.072 0.243-0.072h2.001c0.257 0 0.393-0.136 0.408-0.4v-0.465c-0.014-0.043-0.057-0.057-0.143-0.057h-2.265zM10.080 13.978h-1.392c-0.133 0-0.269 0.076-0.352 0.178l-1.458 1.794v-1.904c0-0.051-0.029-0.068-0.079-0.068h-0.579c-0.25 0-0.393 0.086-0.393 0.257v3.959c0 0.055 0.065 0.093 0.12 0.093h0.602c0.172 0 0.329-0.090 0.329-0.279v-2.008l1.473 2.125c0.055 0.080 0.194 0.162 0.31 0.162h0.874c0.082 0 0.144-0.011 0.172-0.050 0.024-0.035 0.016-0.093-0.027-0.156l-1.415-2.102 1.243-1.615 1.494 2.086c0.079 0.115 0.129 0.25 0.136 0.422v1.311c0 0.073 0.043 0.104 0.122 0.104h0.592c0.184 0.004 0.319-0.095 0.336-0.279v-1.136c0.007-0.093 0.057-0.207 0.143-0.336l1.738-2.44c0.038-0.054 0.051-0.118-0.045-0.118h-0.757c-0.161 0-0.264 0.023-0.357 0.164l-1.222 1.858-1.149-1.803c-0.101-0.157-0.227-0.219-0.458-0.219z"></path>
</symbol>
<symbol id="icon-topnet-1" viewBox="0 0 32 32">
<path d="M5.998 16.595c0.015-0.103 0.029-0.206 0.052-0.309l0.361-0.361c0.206-0.103 0.206-0.103 0.309-0.206 0.069-0.014 0.138-0.032 0.206-0.051v-0.206h0.206v-0.206c0.066-0.015 0.133-0.029 0.206-0.052 0.103-0.103 0.103-0.103 0.508-0.309l0.309-0.309c0.206-0.103 0.309-0.206 0.515-0.309l0.206-0.206c0.412-0.206 0.515-0.309 0.721-0.412l0.103-0.103c0.684-0.339 1.369-0.685 2.060-1.031 0.618-0.206 1.339-0.508 1.648-0.611 0.066-0.029 0.133-0.066 0.206-0.103 0.714-0.169 1.435-0.339 2.156-0.515 1.443-0.206 1.443-0.206 2.37-0.309h2.885c0.824 0.206 0.824 0.206 1.133 0.309 0.206 0.103 0.508 0.206 0.714 0.309 0.103 0.029 0.206 0.066 0.309 0.103 0.103 0.103 0.103 0.103 0.309 0.206 0.721 0.199 0.927 0.302 1.133 0.353 0.015 0.066 0.029 0.133 0.052 0.206l0.103 0.103c0.103 0.309 0.103 0.309 0.309 0.721l0.515 0.515c0.103 0.206 0.206 0.309 0.309 0.515l0.103 0.103c0.103 0.309 0.103 0.309 0.206 0.515v1.031c-0.103 0.309-0.206 0.515-0.258 0.567-0.618 0-0.618 0-1.133-0.052-0.015-0.066-0.029-0.133-0.052-0.206l-0.309-0.309c-0.030-0.066-0.066-0.133-0.103-0.206l-0.257-0.258c-0.066-0.029-0.132-0.066-0.206-0.103l-0.309-0.309c-0.272-0.133-0.545-0.272-0.824-0.413-0.103-0.103-0.103-0.103-0.302-0.206-0.213-0.048-0.352-0.083-0.489-0.121l0.077 0.018-0.103-0.103c-0.394-0.049-0.64-0.086-0.886-0.125l0.164 0.022c-0.066-0.029-0.132-0.066-0.206-0.103-0.376-0.029-0.751-0.066-1.133-0.103h-2.473c-0.235 0.029-0.478 0.067-0.721 0.103h-1.744c-0.515 0.103-1.442 0.206-1.854 0.309-0.618 0.103-1.030 0.206-1.648 0.309-0.206 0.103-1.855 0.619-2.061 0.722-0.309 0.103-0.515 0.206-0.824 0.309-0.206 0.103-0.206 0.103-0.515 0.206l-0.103 0.103c-0.301 0.103-0.301 0.103-0.92 0.412-0.132 0.029-0.272 0.066-0.412 0.103-0.205 0.015-0.412 0.029-0.618 0.052zM8.875 12.42c-0.207-0.031-0.413-0.065-0.618-0.103-0.103-0.103-0.103-0.103-0.309-0.206l-0.508-0.508c-0.139-0.041-0.242-0.076-0.343-0.115l0.034 0.011-0.103-0.103c-0.103-0.029-0.206-0.066-0.309-0.103l-0.103-0.103c-0.066-0.015-0.132-0.029-0.206-0.052-0.015-0.066-0.029-0.133-0.052-0.206l-0.155-0.155c-0.088-0.018-0.157-0.036-0.225-0.056l0.019 0.005c-0.015-0.066-0.029-0.133-0.052-0.206-0.103-0.103-0.103-0.103-0.206-0.309v-0.618l0.206-0.206c0.015-0.132 0.029-0.272 0.052-0.412 0.066 0.015 0.133 0.029 0.206 0.052h0.721c0.103 0.103 0.103 0.103 0.309 0.206 0.309 0.103 0.309 0.103 0.515 0.206 0.099 0.105 0.199 0.208 0.302 0.309 0.066 0.029 0.133 0.066 0.206 0.103l0.309 0.309c0.066 0.015 0.133 0.029 0.206 0.051v0.206h0.206v0.206c0.206 0.052 0.206 0.052 0.257 0.103 0.206 0.412 0.309 0.515 0.412 0.721l0.103 0.103v0.611l-0.258 0.258-0.618 0zM26.375 12.316c-0.069-0.015-0.138-0.032-0.206-0.052-0.017-0.081-0.034-0.148-0.055-0.213l0.004 0.014-0.103-0.103c-0.103-0.928-0.103-0.928-0.103-1.34 0.206-0.412 0.206-0.412 0.257-0.464 0.103-0.015 0.206-0.029 0.309-0.052v-0.206c0.066-0.015 0.133-0.029 0.206-0.051 0.103-0.103 0.309-0.206 0.412-0.309 0.066-0.029 0.132-0.066 0.206-0.103l1.133-1.134c0.066-0.015 0.133-0.029 0.206-0.052v-0.206c0.066-0.015 0.132-0.029 0.206-0.051l0.515-0.515c0.066-0.029 0.132-0.066 0.206-0.103l0.309-0.309h0.714c0.155 0.155 0.155 0.155 0.257 0.361v1.34c0.030 0.066 0.066 0.133 0.103 0.206v0.619c-0.066 0.132-0.133 0.272-0.206 0.412l-0.257 0.257c-0.206 0.103-0.309 0.206-0.515 0.309-0.102 0.108-0.2 0.209-0.3 0.308l-0.001 0.001c-0.206 0.103-0.309 0.206-0.515 0.309l-0.309 0.309-0.618 0.309c-0.103 0.103-0.309 0.206-0.412 0.302-0.169 0.029-0.339 0.066-0.515 0.103-0.066 0.029-0.132 0.066-0.206 0.103l-0.721 0zM14.542 9.953c-0.412-0.103-0.412-0.103-0.618-0.206-0.052-0.052-0.155-0.258-0.258-0.361-0.029-0.169-0.066-0.339-0.103-0.515l-0.103-0.103c-0.031-0.104-0.065-0.207-0.103-0.309-0.103-0.103-0.206-0.309-0.309-0.413l-0.309-0.618v-0.825c0.029-0.066 0.066-0.133 0.103-0.206 0.015-0.169 0.029-0.339 0.052-0.515 0.544 0.015 1.096 0.029 1.648 0.052 0.206 0.103 0.206 0.103 0.412 0.155 0.015 0.066 0.029 0.133 0.051 0.206l0.103 0.103c0.096 0.309 0.096 0.309 0.199 0.515 0.029 0.169 0.066 0.339 0.103 0.515 0.029 0.066 0.066 0.132 0.103 0.206 0.029 0.309 0.066 0.618 0.103 0.928v0.824c-0.029 0.066-0.066 0.133-0.103 0.206l-0.257 0.258c-0.508 0.103-0.508 0.103-0.714 0.103zM21.746 9.644c-0.169-0.052-0.339-0.103-0.515-0.155-0.014-0.069-0.032-0.138-0.052-0.206l-0.103-0.103v-1.031c0.066-0.236 0.132-0.479 0.206-0.721 0.103-0.103 0.103-0.103 0.309-0.515l0.309-0.309c0.103-0.206 0.206-0.309 0.309-0.515 0.052-0.052 0.052-0.052 0.353-0.103 0.015-0.066 0.029-0.132 0.052-0.206l0.464-0.464c0.206-0.103 0.206-0.103 0.309-0.206 0.272-0.015 0.544-0.029 0.824-0.051 0.015 0.066 0.030 0.132 0.052 0.206l0.206 0.206v0.721c-0.235 0.479-0.478 0.957-0.721 1.443l-0.103 0.103c-0.029 0.103-0.066 0.206-0.103 0.309-0.103 0.103-0.206 0.309-0.309 0.412-0.029 0.066-0.066 0.133-0.103 0.206l-0.412 0.412c-0.015 0.066-0.030 0.133-0.052 0.206-0.066 0.015-0.133 0.029-0.199 0.052-0.103 0.103-0.309 0.206-0.412 0.309l-0.309-0zM1.238 24.089h30.236v0.225h-30.236v-0.225zM1.532 25.985c0-0.191 0.028-0.352 0.086-0.481 0.043-0.095 0.102-0.182 0.175-0.257 0.067-0.070 0.148-0.127 0.237-0.167l0.005-0.002c0.117-0.050 0.252-0.074 0.404-0.074 0.276 0 0.497 0.086 0.663 0.257s0.249 0.41 0.249 0.715c0 0.303-0.083 0.54-0.247 0.711-0.165 0.171-0.385 0.256-0.66 0.256-0.279 0-0.501-0.085-0.665-0.255s-0.247-0.405-0.247-0.703zM1.922 25.972c0 0.212 0.049 0.373 0.147 0.483s0.223 0.164 0.374 0.164c0.151 0 0.275-0.054 0.372-0.163s0.145-0.272 0.145-0.489c0-0.215-0.047-0.375-0.141-0.481s-0.22-0.159-0.376-0.159c-0.156 0-0.282 0.053-0.378 0.16s-0.143 0.268-0.143 0.485zM3.647 26.911v-1.876h0.607c0.23 0 0.38 0.010 0.45 0.028 0.107 0.028 0.198 0.089 0.27 0.184s0.109 0.216 0.109 0.365c0 0.115-0.021 0.212-0.063 0.29-0.039 0.075-0.092 0.137-0.158 0.184l-0.002 0.001c-0.059 0.042-0.125 0.072-0.196 0.088-0.091 0.018-0.221 0.027-0.393 0.027h-0.247v0.708l-0.379 0zM4.025 25.353v0.532h0.207c0.149 0 0.249-0.009 0.3-0.029s0.089-0.050 0.118-0.092c0.028-0.042 0.043-0.091 0.043-0.146 0-0.068-0.020-0.125-0.060-0.169-0.039-0.043-0.091-0.073-0.15-0.083l-0.002-0c-0.045-0.009-0.136-0.013-0.272-0.013h-0.183v0zM5.393 26.911v-1.876h1.39v0.317h-1.012v0.416h0.941v0.316h-0.941v0.511h1.047v0.316l-1.426 0zM7.142 26.911v-1.876h0.797c0.2 0 0.346 0.017 0.437 0.051s0.164 0.093 0.218 0.18c0.055 0.087 0.081 0.185 0.081 0.296 0 0.141-0.041 0.257-0.124 0.349s-0.206 0.149-0.371 0.173c0.082 0.048 0.15 0.1 0.203 0.157s0.125 0.159 0.215 0.304l0.229 0.366h-0.453l-0.274-0.409c-0.097-0.146-0.164-0.237-0.2-0.276-0.031-0.034-0.069-0.061-0.112-0.077l-0.002-0.001c-0.040-0.014-0.104-0.021-0.191-0.021h-0.076v0.783h-0.379zM7.521 25.828h0.28c0.182 0 0.295-0.007 0.34-0.023 0.044-0.015 0.081-0.042 0.106-0.079l0-0.001c0.024-0.038 0.039-0.083 0.039-0.133 0-0.003-0-0.006-0-0.009v0c0-0.063-0.017-0.114-0.051-0.153s-0.081-0.064-0.143-0.074c-0.031-0.004-0.123-0.006-0.276-0.006h-0.295v0.476zM10.723 26.911h-0.412l-0.164-0.426h-0.75l-0.155 0.426h-0.401l0.73-1.876h0.4l0.751 1.876zM10.026 26.169l-0.259-0.696-0.253 0.696h0.512zM11.151 26.911v-1.559h-0.556v-0.317h1.49v0.317h-0.555v1.559h-0.379zM12.205 25.985c0-0.191 0.029-0.352 0.086-0.481 0.043-0.095 0.102-0.182 0.175-0.257 0.067-0.070 0.148-0.127 0.237-0.167l0.005-0.002c0.117-0.050 0.251-0.074 0.404-0.074 0.276 0 0.497 0.086 0.663 0.257s0.249 0.41 0.249 0.715c0 0.303-0.083 0.54-0.247 0.711-0.165 0.171-0.385 0.256-0.66 0.256-0.279 0-0.501-0.085-0.665-0.255s-0.247-0.405-0.247-0.703zM12.596 25.972c0 0.212 0.049 0.373 0.147 0.483s0.223 0.164 0.374 0.164c0.151 0 0.275-0.054 0.372-0.163s0.145-0.272 0.145-0.489c0-0.215-0.047-0.375-0.141-0.481s-0.22-0.159-0.376-0.159c-0.156 0-0.282 0.053-0.377 0.16s-0.143 0.268-0.143 0.485zM14.321 26.911v-1.876h0.797c0.2 0 0.346 0.017 0.437 0.051s0.164 0.093 0.218 0.18c0.055 0.087 0.082 0.185 0.082 0.296 0 0.141-0.041 0.257-0.124 0.349s-0.206 0.149-0.371 0.173c0.082 0.048 0.15 0.1 0.203 0.157s0.125 0.159 0.215 0.304l0.229 0.366h-0.453l-0.274-0.409c-0.097-0.146-0.164-0.237-0.2-0.276-0.031-0.034-0.069-0.061-0.112-0.077l-0.002-0.001c-0.040-0.014-0.103-0.021-0.191-0.021h-0.076v0.783h-0.379zM14.7 25.828h0.28c0.181 0 0.295-0.007 0.34-0.023 0.044-0.015 0.081-0.042 0.106-0.079l0-0.001c0.025-0.038 0.039-0.084 0.039-0.141 0-0.063-0.017-0.114-0.051-0.153s-0.081-0.064-0.143-0.074c-0.030-0.004-0.123-0.006-0.276-0.006h-0.295v0.476zM16.928 26.911v-1.876h0.378v1.876h-0.378zM17.672 26.911v-1.876h0.368l0.767 1.253v-1.253h0.352v1.876h-0.38l-0.756-1.223v1.223h-0.352zM19.981 26.911v-1.559h-0.556v-0.317h1.491v0.317h-0.555v1.559h-0.379zM21.16 26.911v-1.876h1.39v0.317h-1.012v0.416h0.941v0.316h-0.941v0.511h1.047v0.316l-1.426 0zM22.908 26.911v-1.876h0.797c0.2 0 0.345 0.017 0.436 0.051s0.164 0.093 0.218 0.18c0.055 0.087 0.082 0.185 0.082 0.296 0 0.141-0.041 0.257-0.124 0.349s-0.207 0.149-0.371 0.173c0.082 0.048 0.15 0.1 0.203 0.157s0.125 0.159 0.215 0.304l0.229 0.366h-0.453l-0.273-0.409c-0.098-0.146-0.164-0.237-0.2-0.276-0.031-0.034-0.069-0.061-0.112-0.077l-0.002-0.001c-0.040-0.014-0.103-0.021-0.191-0.021h-0.076v0.783h-0.379zM23.287 25.828h0.28c0.182 0 0.295-0.007 0.34-0.023 0.044-0.014 0.081-0.042 0.106-0.079l0-0.001c0.025-0.038 0.039-0.084 0.039-0.141 0-0.063-0.017-0.114-0.051-0.153s-0.081-0.064-0.143-0.074c-0.031-0.004-0.123-0.006-0.276-0.006h-0.295v0.476h-0zM24.802 26.911v-1.876h0.368l0.767 1.253v-1.253h0.352v1.876h-0.38l-0.756-1.223v1.223h-0.352zM26.69 26.911v-1.876h1.39v0.317h-1.012v0.416h0.941v0.316h-0.941v0.511h1.048v0.316l-1.426 0zM28.858 26.911v-1.559h-0.556v-0.317h1.49v0.317h-0.555v1.559h-0.379zM30.035 25.035h0.378v1.016c0 0.161 0.005 0.266 0.014 0.314 0.016 0.077 0.055 0.138 0.116 0.185s0.144 0.070 0.25 0.070c0.108 0 0.189-0.022 0.243-0.066s0.088-0.098 0.098-0.162c0.011-0.064 0.017-0.17 0.017-0.319v-1.038h0.379v0.985c0 0.225-0.010 0.385-0.031 0.478-0.019 0.091-0.058 0.17-0.114 0.236l0.001-0.001c-0.055 0.064-0.129 0.115-0.22 0.153s-0.213 0.057-0.361 0.057c-0.179 0-0.315-0.020-0.407-0.062s-0.165-0.095-0.219-0.161c-0.049-0.058-0.086-0.128-0.105-0.204l-0.001-0.004c-0.025-0.108-0.037-0.266-0.037-0.476v-1.001h0zM2.284 19.015v3.55h1.33v-3.549h1.7v-0.856h-4.739v0.856h1.708zM7.56 22.685c1.273 0 2.241-0.549 2.241-1.725 0-1.164-0.959-1.712-2.241-1.712-1.144 0-2.24 0.453-2.24 1.712 0 1.177 0.967 1.725 2.24 1.725zM7.56 22.042c-0.87 0-0.967-0.673-0.967-1.082 0-1.020 0.693-1.070 0.967-1.070 0.306 0 0.967 0.051 0.967 1.070 0 0.403-0.081 1.082-0.967 1.082zM11.104 19.367v4.362h1.225v-1.492c0.411 0.417 1.080 0.448 1.241 0.448 1.168 0 1.886-0.7 1.886-1.713 0-1.057-0.709-1.724-1.862-1.724-0.29 0-0.854 0.044-1.322 0.503h-0.024l0.008-0.384h-1.152zM12.272 20.959c0-0.893 0.588-1.070 0.959-1.070 0.363 0 0.951 0.176 0.951 1.070 0 0.553-0.25 1.083-0.951 1.083-0.717-0-0.959-0.529-0.959-1.083zM18.218 19.808l2.224 2.756h1.354v-4.405h-1.33v2.737h-0.024l-2.224-2.737h-1.346v4.405h1.33v-2.757h0.016zM26.315 21.639c-0.105 0.283-0.476 0.403-0.83 0.403-0.798 0-0.975-0.535-0.984-0.843h3.143l-0.008-0.176c-0.016-0.39-0.121-1.775-2.111-1.775-1.338 0-2.297 0.604-2.297 1.712 0 1.631 1.66 1.725 2.2 1.725 0.757 0 1.805-0.14 2.127-1.046l-1.241-0zM24.501 20.663c0.024-0.327 0.282-0.774 1.007-0.774 0.298 0 0.846 0.088 0.863 0.774h-1.87zM28.561 20.009h0.742v1.712c0 0.654 0.274 0.932 1.096 0.932 0.266 0 0.685-0.038 0.999-0.089v-0.642c-0.116 0.035-0.249 0.056-0.387 0.057h-0c-0.524 0-0.483-0.239-0.483-0.434v-1.536h0.87v-0.642h-0.87v-0.956h-1.225v0.956h-0.741v0.642h-0z"></path>
</symbol>
</defs>
</svg>
